<?xml version="1.0" standalone="no"?>
<!DOCTYPE svg PUBLIC "-//W3C//DTD SVG 20010904//EN"
 "http://www.w3.org/TR/2001/REC-SVG-20010904/DTD/svg10.dtd">
<svg version="1.0" xmlns="http://www.w3.org/2000/svg"
 width="345.000000pt" height="345.000000pt" viewBox="0 0 345.000000 345.000000"
 preserveAspectRatio="xMidYMid meet">
<metadata>
Created by potrace 1.14, written by Peter Selinger 2001-2017
</metadata>
<g transform="translate(0.000000,345.000000) scale(0.100000,-0.100000)"
fill="#000000" stroke="none">
<path d="M879 3378 c0 -13 -2 -32 -4 -43 -2 -11 -7 -42 -10 -70 -4 -27 -10
-70 -15 -95 -4 -25 -8 -52 -8 -60 0 -8 -7 -60 -16 -115 -8 -55 -18 -120 -21
-145 -3 -25 -7 -56 -10 -70 -3 -14 -7 -45 -10 -70 -7 -64 -25 -155 -56 -285
-5 -22 -11 -51 -13 -65 -2 -14 -20 -97 -40 -185 -20 -88 -39 -171 -41 -185 -3
-14 -20 -97 -40 -185 -73 -333 -157 -721 -161 -745 -6 -29 -102 -470 -141
-645 -25 -108 -32 -194 -22 -235 6 -22 66 -81 86 -85 10 -2 18 -4 18 -5 0 -2
611 -3 1357 -4 1113 -1 1359 1 1363 12 3 7 9 10 15 7 5 -3 10 -1 10 6 0 7 3 9
7 6 7 -8 39 34 35 45 -1 5 2 8 6 8 20 0 18 116 -2 205 -18 76 -23 100 -32 143
-3 15 -16 79 -30 142 -14 63 -27 124 -30 135 -2 11 -17 81 -33 155 -16 74 -66
304 -110 510 -45 206 -86 393 -91 415 -5 22 -28 126 -50 230 -22 105 -45 210
-51 235 -6 25 -13 54 -15 65 -2 11 -6 29 -8 40 -3 17 -14 92 -32 215 -14 98
-44 310 -49 345 -12 77 -14 90 -20 140 -3 28 -10 73 -15 100 -5 28 -12 70 -14
94 -3 24 -7 45 -9 47 -2 2 -26 -21 -53 -53 -27 -31 -54 -61 -59 -67 -6 -6 -53
-60 -105 -121 -51 -60 -101 -117 -109 -126 -9 -9 -27 -29 -41 -45 -14 -16 -52
-61 -85 -99 -33 -38 -71 -83 -85 -99 -14 -16 -42 -48 -62 -70 l-37 -41 -208 0
c-173 0 -211 2 -223 15 -9 8 -43 46 -75 85 -33 38 -64 75 -70 81 -20 22 -256
294 -335 385 -135 156 -150 171 -151 147z"/>
</g>
</svg>
