<svg width="473" height="317" viewBox="0 0 473 317" fill="none" xmlns="http://www.w3.org/2000/svg">
<path d="M263.031 312.385L304.537 170.825L339.232 186.07L263.031 312.385Z" fill="#073B4C"/>
<path d="M447.612 316.165L346.842 208.427L377.614 186.31L447.612 316.165Z" fill="#073B4C"/>
<path d="M347.5 209L222.359 128.75H472.641L347.5 209Z" fill="#118AB2"/>
<path d="M416.168 0.883392L357.324 159.776L272.932 91.3987L416.168 0.883392Z" fill="#FFD166"/>
<path d="M265.076 99.3238C255.95 132.613 221.566 152.202 188.276 143.076C154.987 133.95 135.398 99.5657 144.524 66.2761C153.65 32.9865 188.034 13.398 221.324 22.5238C254.613 31.6497 274.202 66.0342 265.076 99.3238Z" fill="#EF476F"/>
<path d="M0 86.5L144 72.2106V100.789L0 86.5Z" fill="#06D6A0"/>
</svg>
